<?xml version="1.0" encoding="UTF-8" standalone="no"?>
<!-- Created with Inkscape (http://www.inkscape.org/) -->

<svg
   xmlns:dc="http://purl.org/dc/elements/1.1/"
   xmlns:cc="http://creativecommons.org/ns#"
   xmlns:rdf="http://www.w3.org/1999/02/22-rdf-syntax-ns#"
   xmlns:svg="http://www.w3.org/2000/svg"
   xmlns="http://www.w3.org/2000/svg"
   xmlns:xlink="http://www.w3.org/1999/xlink"
   xmlns:sodipodi="http://sodipodi.sourceforge.net/DTD/sodipodi-0.dtd"
   xmlns:inkscape="http://www.inkscape.org/namespaces/inkscape"
   width="213.53354mm"
   height="172.07983mm"
   viewBox="0 0 213.53354 172.07983"
   version="1.1"
   id="svg663575"
   inkscape:version="0.92.2 5c3e80d, 2017-08-06"
   sodipodi:docname="chatbubbles.svg">
  <defs
     id="defs663569">
    <linearGradient
       inkscape:collect="always"
       xlink:href="#linearGradient554663"
       id="linearGradient663507"
       gradientUnits="userSpaceOnUse"
       x1="-3586.957"
       y1="-1045.7032"
       x2="-3586.957"
       y2="-1405.7032" />
    <linearGradient
       inkscape:collect="always"
       id="linearGradient554663">
      <stop
         style="stop-color:#f9f9f9;stop-opacity:1"
         offset="0"
         id="stop554659" />
      <stop
         style="stop-color:#c7c7c7;stop-opacity:1"
         offset="1"
         id="stop554661" />
    </linearGradient>
    <linearGradient
       inkscape:collect="always"
       xlink:href="#linearGradient554663"
       id="linearGradient663509"
       gradientUnits="userSpaceOnUse"
       x1="-3796.957"
       y1="-985.70331"
       x2="-3796.957"
       y2="-1195.7032" />
  </defs>
  <sodipodi:namedview
     id="base"
     pagecolor="#ffffff"
     bordercolor="#666666"
     borderopacity="1.0"
     inkscape:pageopacity="0.0"
     inkscape:pageshadow="2"
     inkscape:zoom="0.35"
     inkscape:cx="47.813631"
     inkscape:cy="425.19024"
     inkscape:document-units="mm"
     inkscape:current-layer="layer1"
     showgrid="false"
     fit-margin-top="0"
     fit-margin-left="0"
     fit-margin-right="0"
     fit-margin-bottom="0"
     inkscape:window-width="1360"
     inkscape:window-height="737"
     inkscape:window-x="0"
     inkscape:window-y="0"
     inkscape:window-maximized="1" />
  <metadata
     id="metadata663572">
    <rdf:RDF>
      <cc:Work
         rdf:about="">
        <dc:format>image/svg+xml</dc:format>
        <dc:type
           rdf:resource="http://purl.org/dc/dcmitype/StillImage" />
        <dc:title></dc:title>
      </cc:Work>
    </rdf:RDF>
  </metadata>
  <g
     inkscape:label="Layer 1"
     inkscape:groupmode="layer"
     id="layer1"
     transform="translate(43.266761,-89.251755)">
    <g
       id="g663505"
       transform="matrix(0.35277777,0,0,-0.35277777,1333.7841,-258.18517)">
      <path
         style="opacity:1;vector-effect:none;fill:url(#linearGradient663507);fill-opacity:1;stroke:#000000;stroke-width:11.33858299;stroke-linecap:butt;stroke-linejoin:miter;stroke-miterlimit:4;stroke-dasharray:none;stroke-dashoffset:0;stroke-opacity:1"
         d="m -3571.7296,-1066.2766 c -9.1366,0.1368 -18.2779,-0.028 -27.3896,-0.4936 -148.1929,-7.576 -260.2329,-91.6949 -252.5728,-189.6299 3.9281,-48.5711 29.9917,-91.0741 85.3536,-123.1948 v 0 l -29.8199,-83.7246 126.1597,44.7289 v 0 c 33.9441,-8.7381 62.6969,-9.8914 99.1216,-9.2797 148.5878,2.5277 267.0491,82.7257 267.0483,180.791 l -1.456,18.6152 c -14.2148,90.6243 -128.3879,160.1226 -266.4449,162.1875 z"
         id="path663501"
         inkscape:connector-curvature="0"
         sodipodi:nodetypes="cccccccccccc" />
      <path
         sodipodi:nodetypes="cccccccccccc"
         inkscape:connector-curvature="0"
         id="path663503"
         d="m -3746.997,-988.3183 c 5.2189,0.087 10.4404,-0.018 15.6451,-0.316 84.6484,-4.8497 148.6462,-58.6969 144.2707,-121.3882 -2.2437,-31.0919 -17.1314,-58.2993 -48.7544,-78.8609 v 0 l 17.0333,-53.5948 -72.063,28.6325 v 0 c -19.389,-5.5936 -35.8127,-6.3319 -56.6187,-5.9404 -84.874,1.6182 -152.5397,52.9554 -152.5392,115.7302 l 0.8317,11.9162 c 8.1195,58.0115 73.3357,102.4995 152.1945,103.8214 z"
         style="opacity:1;vector-effect:none;fill:url(#linearGradient663509);fill-opacity:1;stroke:#000000;stroke-width:6.8562932;stroke-linecap:butt;stroke-linejoin:miter;stroke-miterlimit:4;stroke-dasharray:none;stroke-dashoffset:0;stroke-opacity:1" />
    </g>
  </g>
</svg>
