<?xml version="1.0" encoding="UTF-8" standalone="no"?>
<!-- Created with Inkscape (http://www.inkscape.org/) -->

<svg
   xmlns:dc="http://purl.org/dc/elements/1.1/"
   xmlns:cc="http://creativecommons.org/ns#"
   xmlns:rdf="http://www.w3.org/1999/02/22-rdf-syntax-ns#"
   xmlns:svg="http://www.w3.org/2000/svg"
   xmlns="http://www.w3.org/2000/svg"
   xmlns:sodipodi="http://sodipodi.sourceforge.net/DTD/sodipodi-0.dtd"
   xmlns:inkscape="http://www.inkscape.org/namespaces/inkscape"
   version="1.1"
   id="svg2"
   xml:space="preserve"
   width="666.66669"
   height="666.66669"
   viewBox="0 0 666.66669 666.66669"
   sodipodi:docname="cloudtest.svg"
   inkscape:version="0.92.2 5c3e80d, 2017-08-06"><metadata
     id="metadata8"><rdf:RDF><cc:Work
         rdf:about=""><dc:format>image/svg+xml</dc:format><dc:type
           rdf:resource="http://purl.org/dc/dcmitype/StillImage" /><dc:title></dc:title></cc:Work></rdf:RDF></metadata><defs
     id="defs6"><clipPath
       clipPathUnits="userSpaceOnUse"
       id="clipPath20"><path
         d="M 0,500 H 500 V 0 H 0 Z"
         id="path18"
         inkscape:connector-curvature="0" /></clipPath><clipPath
       clipPathUnits="userSpaceOnUse"
       id="clipPath28"><path
         d="M 0,500 H 500 V 282 H 0 Z"
         id="path26"
         inkscape:connector-curvature="0" /></clipPath><clipPath
       clipPathUnits="userSpaceOnUse"
       id="clipPath32"><path
         d="M 0,500 H 500 V 282 H 0 Z"
         id="path30"
         inkscape:connector-curvature="0" /></clipPath><clipPath
       clipPathUnits="userSpaceOnUse"
       id="clipPath36"><path
         d="M 0,500 H 500 V 375.472 H 0 Z"
         id="path34"
         inkscape:connector-curvature="0" /></clipPath><clipPath
       clipPathUnits="userSpaceOnUse"
       id="clipPath78"><path
         d="M 0,500 H 500 V 0 H 0 Z"
         id="path76"
         inkscape:connector-curvature="0" /></clipPath><clipPath
       clipPathUnits="userSpaceOnUse"
       id="clipPath210"><path
         d="M 245.06,247.053 H 407.216 V 201.442 H 245.06 Z"
         id="path208"
         inkscape:connector-curvature="0" /></clipPath><clipPath
       clipPathUnits="userSpaceOnUse"
       id="clipPath234"><path
         d="M 28.5354,104.265 H 153.14 V 58.708 H 28.5354 Z"
         id="path232"
         inkscape:connector-curvature="0" /></clipPath><clipPath
       clipPathUnits="userSpaceOnUse"
       id="clipPath254"><path
         d="m 128.666,211.482 h 42.518 v -21.907 h -42.518 z"
         id="path252"
         inkscape:connector-curvature="0" /></clipPath><clipPath
       clipPathUnits="userSpaceOnUse"
       id="clipPath274"><path
         d="M 122.576,271.139 H 411.998 V 189.574 H 122.576 Z"
         id="path272"
         inkscape:connector-curvature="0" /></clipPath><clipPath
       clipPathUnits="userSpaceOnUse"
       id="clipPath290"><path
         d="m 257.997,238.905 h 63.675 v -25.911 h -63.675 z"
         id="path288"
         inkscape:connector-curvature="0" /></clipPath><clipPath
       clipPathUnits="userSpaceOnUse"
       id="clipPath322"><path
         d="m 207.268,221.222 h 19.123 v -7.795 h -19.123 z"
         id="path320"
         inkscape:connector-curvature="0" /></clipPath><clipPath
       clipPathUnits="userSpaceOnUse"
       id="clipPath346"><path
         d="m 114.104,211.482 h 57.08 v -18.123 h -57.08 z"
         id="path344"
         inkscape:connector-curvature="0" /></clipPath><clipPath
       clipPathUnits="userSpaceOnUse"
       id="clipPath466"><path
         d="m 212.739,239.605 h 109.03 v -26.178 h -109.03 z"
         id="path464"
         inkscape:connector-curvature="0" /></clipPath><clipPath
       clipPathUnits="userSpaceOnUse"
       id="clipPath518"><path
         d="M 0,0 H 500 V 500 H 0 Z"
         id="path516"
         inkscape:connector-curvature="0" /></clipPath><clipPath
       clipPathUnits="userSpaceOnUse"
       id="clipPath530"><path
         d="M 425.216,183.731 H 614.965 V 126 H 425.216 Z"
         id="path528"
         inkscape:connector-curvature="0" /></clipPath></defs><sodipodi:namedview
     pagecolor="#ffffff"
     bordercolor="#666666"
     borderopacity="1"
     objecttolerance="10"
     gridtolerance="10"
     guidetolerance="10"
     inkscape:pageopacity="0"
     inkscape:pageshadow="2"
     inkscape:window-width="1360"
     inkscape:window-height="737"
     id="namedview4"
     showgrid="false"
     inkscape:zoom="0.50063159"
     inkscape:cx="235.48528"
     inkscape:cy="407.69878"
     inkscape:window-x="0"
     inkscape:window-y="0"
     inkscape:window-maximized="1"
     inkscape:current-layer="g74" /><g
     id="g10"
     inkscape:groupmode="layer"
     inkscape:label="129645-ORH7QR-434"
     transform="matrix(1.3333333,0,0,-1.3333333,0,666.66667)"><path
       d="M 0,0 H 500 V 500 H 0 Z"
       style="fill:#69d7f5;fill-opacity:1;fill-rule:nonzero;stroke:none"
       id="path12"
       inkscape:connector-curvature="0" /><g
       id="g14"><g
         id="g16"
         clip-path="url(#clipPath20)"><g
           id="g22"><g
             id="g24" /><g
             id="g64"><g
               clip-path="url(#clipPath28)"
               id="g62"
               style="opacity:0.5"><g
                 id="g48"><g
                   id="g38" /><g
                   id="g46"><g
                     clip-path="url(#clipPath32)"
                     id="g44"
                     style="opacity:0.80000299"><g
                       transform="translate(0,500)"
                       id="g42"><path
                         d="M 0,0 0.993,-218 500,-12.584 V 0 Z"
                         style="fill:#69d7f5;fill-opacity:1;fill-rule:nonzero;stroke:none"
                         id="path40"
                         inkscape:connector-curvature="0" /></g></g></g></g><g
                 id="g60"><g
                   id="g50" /><g
                   id="g58"><g
                     clip-path="url(#clipPath36)"
                     id="g56"
                     style="opacity:0.80000299"><g
                       transform="translate(0,500)"
                       id="g54"><path
                         d="M 0,0 0.993,-124.528 500,-7.025 V 0 Z"
                         style="fill:#69d7f5;fill-opacity:1;fill-rule:nonzero;stroke:none"
                         id="path52"
                         inkscape:connector-curvature="0" /></g></g></g></g></g></g></g></g></g><g
       id="g72"><g
         id="g74"
         clip-path="url(#clipPath78)"><g
           id="g220"
           transform="translate(242.9355,365.1616)"><path
             d="m 0,0 c -1.694,0 -3.294,-0.389 -4.732,-1.064 -2.447,4.334 -7.088,7.265 -12.42,7.265 -0.869,0 -1.715,-0.09 -2.54,-0.239 -2.445,9.746 -11.179,16.99 -21.639,17.177 0,0.004 0.001,0.007 0.001,0.011 0,6.164 -4.998,11.162 -11.162,11.162 -3.621,0 -6.829,-1.732 -8.868,-4.405 -4.661,4.142 -10.795,6.662 -17.52,6.662 -12.301,0 -22.635,-8.416 -25.56,-19.804 -2.208,0.829 -4.599,1.286 -7.098,1.286 -10.563,0 -19.225,-8.114 -20.108,-18.448 -0.93,0.251 -1.903,0.397 -2.912,0.397 -6.164,0 -11.161,-4.997 -11.161,-11.162 H 11.161 C 11.161,-4.997 6.164,0 0,0"
             style="fill:#ffffff;fill-opacity:1;fill-rule:nonzero;stroke:none"
             id="path222"
             inkscape:connector-curvature="0" /></g><g
           id="g224"
           transform="translate(481.1396,320.9746)"><path
             d="m 0,0 c 0,5.591 -4.532,10.123 -10.123,10.123 -1.09,0 -2.138,-0.177 -3.122,-0.496 -1.733,6.888 -7.949,11.995 -15.375,11.995 -1.144,0 -2.257,-0.127 -3.332,-0.357 -0.973,12.325 -11.276,22.026 -23.851,22.026 -10.26,0 -19.007,-6.457 -22.411,-15.527 -3.24,2.119 -7.11,3.356 -11.271,3.356 -11.389,0 -20.621,-9.233 -20.621,-20.622 0,-1.635 0.196,-3.224 0.555,-4.749 h -7.196 c -4.34,0 -7.857,-3.518 -7.857,-7.857 V -2.267 H -0.264 C -0.097,-1.537 0,-0.78 0,0"
             style="fill:#a7e3f5;fill-opacity:1;fill-rule:nonzero;stroke:none"
             id="path226"
             inkscape:connector-curvature="0" /></g><g
           id="g228"><g
             id="g230" /><g
             id="g242"><g
               clip-path="url(#clipPath234)"
               id="g240"
               style="opacity:0.49000501"><g
                 transform="translate(153.1401,60.9746)"
                 id="g238"><path
                   d="m 0,0 c 0,5.591 -4.533,10.123 -10.124,10.123 -1.09,0 -2.137,-0.177 -3.121,-0.496 -1.734,6.888 -7.95,11.994 -15.376,11.994 -1.143,0 -2.256,-0.127 -3.332,-0.356 -0.972,12.325 -11.275,22.026 -23.851,22.026 -10.259,0 -19.007,-6.457 -22.411,-15.527 -3.24,2.12 -7.11,3.356 -11.27,3.356 -11.39,0 -20.622,-9.233 -20.622,-20.622 0,-1.635 0.196,-3.224 0.556,-4.749 h -7.197 c -4.339,0 -7.857,-3.518 -7.857,-7.856 v -0.16 H -0.264 C -0.097,-1.537 0,-0.78 0,0"
                   style="fill:#a7e3f5;fill-opacity:1;fill-rule:nonzero;stroke:none"
                   id="path236"
                   inkscape:connector-curvature="0" /></g></g></g></g></g></g><g
       id="g512"><g
         id="g514"
         clip-path="url(#clipPath518)"><g
           id="g520"
           transform="translate(59.9746,247.6328)"><path
             d="m 0,0 c 0,3.371 -2.732,6.102 -6.102,6.102 -0.282,0 -0.558,-0.025 -0.83,-0.062 -0.461,4.853 -4.546,8.65 -9.521,8.65 -1.685,0 -3.266,-0.439 -4.642,-1.204 -1.316,3.048 -4.346,5.183 -7.878,5.183 -1.553,0 -3.005,-0.419 -4.262,-1.14 -2.723,4.718 -7.817,7.895 -13.657,7.895 -6.643,0 -12.322,-4.112 -14.642,-9.927 -1.577,1.06 -3.475,1.679 -5.519,1.679 -4.973,0 -9.089,-3.665 -9.797,-8.442 -1.208,1.213 -2.878,1.963 -4.724,1.963 -3.681,0 -6.666,-2.985 -6.666,-6.667 0,-0.19 0.012,-0.378 0.028,-0.564 h -2.294 c -2.616,0 -4.736,-2.12 -4.736,-4.737 V -1.366 H -0.159 C -0.058,-0.926 0,-0.47 0,0"
             style="fill:#a7e3f5;fill-opacity:1;fill-rule:nonzero;stroke:none"
             id="path522"
             inkscape:connector-curvature="0" /></g><g
           id="g524"><g
             id="g526" /><g
             id="g538"><g
               clip-path="url(#clipPath530)"
               id="g536"
               style="opacity:0.41000402"><g
                 transform="translate(601.4648,139.5)"
                 id="g534"><path
                   d="m 0,0 c -2.049,0 -3.983,-0.47 -5.724,-1.287 -2.96,5.242 -8.572,8.787 -15.021,8.787 -1.051,0 -2.074,-0.109 -3.072,-0.289 -2.957,11.788 -13.522,20.55 -26.172,20.776 V 28 c 0,7.456 -6.044,13.5 -13.5,13.5 -4.38,0 -8.26,-2.095 -10.727,-5.327 -5.637,5.01 -13.055,8.057 -21.19,8.057 -14.877,0 -27.377,-10.179 -30.914,-23.953 -2.672,1.003 -5.564,1.556 -8.586,1.556 -12.776,0 -23.253,-9.813 -24.321,-22.313 -1.124,0.303 -2.301,0.48 -3.522,0.48 -7.456,0 -13.5,-6.044 -13.5,-13.5 H 13.5 C 13.5,-6.044 7.456,0 0,0"
                   style="fill:#ffffff;fill-opacity:1;fill-rule:nonzero;stroke:none"
                   id="path532"
                   inkscape:connector-curvature="0" /></g></g></g></g><g
           id="g540"
           transform="translate(447.2021,342.7363)"><path
             d="m 0,0 c 1.788,0 3.476,-0.41 4.993,-1.123 2.583,4.573 7.48,7.666 13.107,7.666 0.916,0 1.809,-0.095 2.68,-0.251 2.58,10.284 11.797,17.929 22.834,18.126 v 0.011 c 0,6.505 5.274,11.778 11.779,11.778 3.82,0 7.206,-1.828 9.358,-4.647 4.918,4.37 11.391,7.029 18.487,7.029 12.981,0 23.886,-8.881 26.973,-20.899 2.33,0.876 4.853,1.358 7.49,1.358 11.147,0 20.287,-8.562 21.219,-19.467 0.98,0.265 2.008,0.419 3.073,0.419 6.505,0 11.778,-5.273 11.778,-11.778 H -11.778 C -11.778,-5.273 -6.505,0 0,0"
             style="fill:#ffffff;fill-opacity:1;fill-rule:nonzero;stroke:none"
             id="path542"
             inkscape:connector-curvature="0" /></g><g
           id="g544"
           transform="translate(22.6216,426.4956)"><path
             d="m 0,0 c 0,3.69 2.991,6.681 6.681,6.681 0.72,0 1.411,-0.117 2.06,-0.327 1.144,4.545 5.247,7.916 10.148,7.916 0.755,0 1.489,-0.084 2.198,-0.236 0.642,8.134 7.442,14.537 15.742,14.537 6.77,0 12.544,-4.261 14.79,-10.247 2.139,1.398 4.693,2.215 7.439,2.215 7.516,0 13.609,-6.094 13.609,-13.61 0,-1.079 -0.129,-2.128 -0.367,-3.135 h 4.75 c 2.864,0 5.185,-2.321 5.185,-5.185 V -1.496 H 0.174 C 0.064,-1.014 0,-0.515 0,0"
             style="fill:#a7e3f5;fill-opacity:1;fill-rule:nonzero;stroke:none"
             id="path546"
             inkscape:connector-curvature="0" /></g><g
           id="g548"
           transform="translate(45.0195,440.8579)"><path
             d="m 0,0 c -1.18,0 -2.294,-0.271 -3.295,-0.741 -1.705,3.018 -4.937,5.059 -8.65,5.059 -0.605,0 -1.194,-0.062 -1.769,-0.166 -1.703,6.787 -7.786,11.833 -15.07,11.963 0,0.003 0,0.005 0,0.007 0,4.294 -3.48,7.774 -7.773,7.774 -2.522,0 -4.756,-1.207 -6.176,-3.067 -3.246,2.884 -7.518,4.639 -12.202,4.639 -8.566,0 -15.764,-5.862 -17.8,-13.793 -1.538,0.578 -3.204,0.896 -4.944,0.896 -7.356,0 -13.389,-5.651 -14.004,-12.848 C -92.33,-0.102 -93.008,0 -93.711,0 c -4.293,0 -7.773,-3.48 -7.773,-7.773 H 7.773 C 7.773,-3.48 4.293,0 0,0"
             style="fill:#ffffff;fill-opacity:1;fill-rule:nonzero;stroke:none"
             id="path550"
             inkscape:connector-curvature="0" /></g><g
           id="g552"
           transform="translate(418.5967,432.4932)"><path
             d="m 0,0 c 0,4.738 -3.841,8.579 -8.579,8.579 -0.924,0 -1.812,-0.15 -2.646,-0.42 -1.468,5.837 -6.737,10.164 -13.03,10.164 -0.969,0 -1.912,-0.107 -2.823,-0.302 -0.824,10.445 -9.556,18.666 -20.213,18.666 -8.694,0 -16.107,-5.472 -18.992,-13.158 -2.746,1.796 -6.026,2.844 -9.552,2.844 -9.651,0 -17.476,-7.824 -17.476,-17.476 0,-1.386 0.166,-2.732 0.471,-4.025 h -6.098 c -3.677,0 -6.659,-2.981 -6.659,-6.658 V -1.92 H -0.224 C -0.082,-1.302 0,-0.661 0,0"
             style="fill:#a7e3f5;fill-opacity:1;fill-rule:nonzero;stroke:none"
             id="path554"
             inkscape:connector-curvature="0" /></g><g
           id="g556"
           transform="translate(551.9941,99.9043)"><path
             d="m 0,0 c -22.278,0 -41.51,-13.031 -50.498,-31.885 -4.095,1.221 -8.428,1.885 -12.919,1.885 -21.39,0 -39.294,-14.873 -43.966,-34.839 -5.289,4.167 -11.957,6.66 -19.212,6.66 -12.125,0 -22.62,-6.948 -27.742,-17.075 -5.391,11.299 -16.918,19.107 -30.271,19.107 -15.873,0 -29.161,-11.037 -32.631,-25.851 -2.296,1.163 -4.885,1.834 -7.635,1.834 -9.348,0 -16.925,-7.578 -16.925,-16.925 0,-9.348 7.577,-16.926 16.925,-16.926 4.961,0 9.408,2.148 12.504,5.548 6.029,-8.887 16.213,-14.728 27.762,-14.728 13.525,0 25.171,8.013 30.47,19.548 5.193,-9.916 15.575,-16.686 27.543,-16.686 12.15,0 22.664,6.977 27.774,17.138 8.273,-10.436 21.052,-17.138 35.404,-17.138 14.004,0 26.517,6.374 34.802,16.377 8.372,-4.998 18.156,-7.877 28.615,-7.877 30.882,0 55.916,25.035 55.916,55.917 C 55.916,-25.034 30.882,0 0,0"
             style="fill:#ffffff;fill-opacity:1;fill-rule:nonzero;stroke:none"
             id="path558"
             inkscape:connector-curvature="0" /></g><g
           id="g560"
           transform="translate(179.6475,13.7402)"><path
             d="m 0,0 c -5.912,0 -11.109,-3.036 -14.136,-7.63 -3.04,2.365 -6.85,3.788 -11,3.788 -2.266,0 -4.426,-0.437 -6.422,-1.204 0.013,0.4 0.031,0.8 0.031,1.204 0,20.063 -16.265,36.327 -36.327,36.327 -6.666,0 -12.907,-1.803 -18.277,-4.936 -7.274,18.228 -25.077,31.115 -45.902,31.115 -16.401,0 -30.928,-7.996 -39.917,-20.296 -4.919,2.427 -10.453,3.796 -16.309,3.796 -20.389,0 -36.917,-16.527 -36.917,-36.916 0,-20.389 16.528,-36.917 36.917,-36.917 7.731,0 14.905,2.381 20.836,6.443 8.976,-9.213 21.511,-14.943 35.39,-14.943 13.709,0 26.111,5.585 35.063,14.6 6.624,-8.863 17.2,-14.6 29.116,-14.6 10.33,0 19.646,4.319 26.261,11.242 2.761,-6.354 9.087,-10.802 16.457,-10.802 6.612,0 12.373,3.586 15.486,8.91 2.738,-1.907 6.061,-3.032 9.65,-3.032 9.347,0 16.925,7.579 16.925,16.926 C 16.925,-7.578 9.347,0 0,0"
             style="fill:#ffffff;fill-opacity:1;fill-rule:nonzero;stroke:none"
             id="path562"
             inkscape:connector-curvature="0" /></g></g></g></g></svg>