<?xml version="1.0" encoding="UTF-8" standalone="no"?>
<!-- Created with Inkscape (http://www.inkscape.org/) -->

<svg
   xmlns:dc="http://purl.org/dc/elements/1.1/"
   xmlns:cc="http://creativecommons.org/ns#"
   xmlns:rdf="http://www.w3.org/1999/02/22-rdf-syntax-ns#"
   xmlns:svg="http://www.w3.org/2000/svg"
   xmlns="http://www.w3.org/2000/svg"
   xmlns:xlink="http://www.w3.org/1999/xlink"
   xmlns:sodipodi="http://sodipodi.sourceforge.net/DTD/sodipodi-0.dtd"
   xmlns:inkscape="http://www.inkscape.org/namespaces/inkscape"
   version="1.1"
   id="svg2"
   xml:space="preserve"
   width="666.66669"
   height="666.66669"
   viewBox="0 0 666.66669 666.66669"
   sodipodi:docname="testbirds.svg"
   inkscape:version="0.92.2 5c3e80d, 2017-08-06"><metadata
     id="metadata8"><rdf:RDF><cc:Work
         rdf:about=""><dc:format>image/svg+xml</dc:format><dc:type
           rdf:resource="http://purl.org/dc/dcmitype/StillImage" /><dc:title></dc:title></cc:Work></rdf:RDF></metadata><defs
     id="defs6"><clipPath
       clipPathUnits="userSpaceOnUse"
       id="clipPath18"><path
         d="M 0,500 H 500 V 0 H 0 Z"
         id="path16"
         inkscape:connector-curvature="0" /></clipPath><clipPath
       clipPathUnits="userSpaceOnUse"
       id="clipPath26"><path
         d="m 1280.467,0.279 h -750 v 500.542 h 750 z"
         id="path24"
         inkscape:connector-curvature="0" /></clipPath><clipPath
       clipPathUnits="userSpaceOnUse"
       id="clipPath34"><path
         d="m 1044.533,70.117 c 10.346,21.489 -0.87,48.344 -25.046,59.982 -18.896,9.091 -40.111,6.199 -53.42,-5.755 -2.835,5.147 -7.219,9.509 -12.918,12.252 -7.166,3.447 -15.025,3.702 -22.01,1.359 -2.178,7.851 -7.576,14.762 -15.493,18.573 -9.313,4.483 -19.808,3.576 -28.009,-1.453 -4.68,10.337 -13.293,19.449 -24.911,25.039 -9.088,4.375 -18.713,5.976 -27.738,5.129 -1.792,13.107 -10.732,25.632 -24.645,32.329 -19.587,9.428 -42.069,3.952 -52.179,-12.061 -2.442,2.659 -5.4,4.926 -8.851,6.586 -3.562,1.715 -7.3,2.631 -11.012,2.841 -2.399,7.304 -7.631,13.666 -15.103,17.259 -14.572,7.014 -32.068,0.89 -39.081,-13.682 -0.829,-1.722 -1.457,-3.486 -1.929,-5.266 -6.743,1.741 -13.558,1.871 -19.877,0.563 -3.206,11.085 -11.505,21.206 -23.511,26.982 -20.905,10.062 -45.105,3.156 -54.048,-15.428 0,0 -157.615,22.988 -100.044,-261.14 l 488.039,-10.214 c 0,0 82.319,14.926 71.786,116.105"
         id="path32"
         inkscape:connector-curvature="0" /></clipPath><linearGradient
       x1="0"
       y1="0"
       x2="1"
       y2="0"
       gradientUnits="userSpaceOnUse"
       gradientTransform="matrix(-185.75092,-386.02438,386.02438,-185.75092,858.63477,286.10156)"
       spreadMethod="pad"
       id="linearGradient46"><stop
         style="stop-opacity:1;stop-color:#ffffff"
         offset="0"
         id="stop40" /><stop
         style="stop-opacity:1;stop-color:#ffffff"
         offset="0.04358388"
         id="stop42" /><stop
         style="stop-opacity:1;stop-color:#99d6f4"
         offset="1"
         id="stop44" /></linearGradient><clipPath
       clipPathUnits="userSpaceOnUse"
       id="clipPath56"><path
         d="M 0,0.279 H 499.721 V 500 H 0 Z"
         id="path54"
         inkscape:connector-curvature="0" /></clipPath><radialGradient
       fx="0"
       fy="0"
       cx="0"
       cy="0"
       r="1"
       gradientUnits="userSpaceOnUse"
       gradientTransform="matrix(-2.16e-5,495.24072,495.24072,2.16e-5,247.88281,73.916992)"
       spreadMethod="pad"
       id="radialGradient72"
       fr="0"><stop
         style="stop-opacity:1;stop-color:#ffffff"
         offset="0"
         id="stop62" /><stop
         style="stop-opacity:1;stop-color:#ffffff"
         offset="0.25069752"
         id="stop64" /><stop
         style="stop-opacity:1;stop-color:#5fd3fe"
         offset="0.582822"
         id="stop66" /><stop
         style="stop-opacity:1;stop-color:#5fd3fe"
         offset="0.64917967"
         id="stop68" /><stop
         style="stop-opacity:1;stop-color:#0266b1"
         offset="1"
         id="stop70" /></radialGradient><clipPath
       clipPathUnits="userSpaceOnUse"
       id="clipPath82"><path
         d="M 0,0.279 H 499.721 V 500 H 0 Z"
         id="path80"
         inkscape:connector-curvature="0" /></clipPath><clipPath
       clipPathUnits="userSpaceOnUse"
       id="clipPath90"><path
         d="M 129.428,444.588 H 510.895 V 63.1211 H 129.428 Z"
         id="path88"
         inkscape:connector-curvature="0" /></clipPath><clipPath
       clipPathUnits="userSpaceOnUse"
       id="clipPath94"><path
         d="m 129.428,253.855 c 0,-105.339 85.393,-190.734 190.733,-190.734 105.34,0 190.734,85.395 190.734,190.734 0,105.339 -85.394,190.733 -190.734,190.733 -105.34,0 -190.733,-85.394 -190.733,-190.733"
         id="path92"
         inkscape:connector-curvature="0" /></clipPath><radialGradient
       fx="0"
       fy="0"
       cx="0"
       cy="0"
       r="1"
       gradientUnits="userSpaceOnUse"
       gradientTransform="matrix(190.73361,0,0,-190.73361,320.16211,253.854)"
       spreadMethod="pad"
       id="radialGradient102"><stop
         style="stop-opacity:1;stop-color:#230000"
         offset="0"
         id="stop96" /><stop
         style="stop-opacity:1;stop-color:#91432a"
         offset="0.73"
         id="stop98" /><stop
         style="stop-opacity:1;stop-color:#230000"
         offset="1"
         id="stop100" /></radialGradient><clipPath
       clipPathUnits="userSpaceOnUse"
       id="clipPath124"><path
         d="M 224.794,349.222 H 415.528 V 158.488 H 224.794 Z"
         id="path122"
         inkscape:connector-curvature="0" /></clipPath><radialGradient
       fx="0"
       fy="0"
       cx="0"
       cy="0"
       r="1"
       gradientUnits="userSpaceOnUse"
       gradientTransform="matrix(95.367226,0,0,-95.367226,320.16211,253.85498)"
       spreadMethod="pad"
       id="radialGradient150"><stop
         style="stop-opacity:1;stop-color:#ffffff"
         offset="0"
         id="stop130" /><stop
         style="stop-opacity:1;stop-color:#ffffff"
         offset="0.15"
         id="stop132" /><stop
         style="stop-opacity:1;stop-color:#905156"
         offset="0.37108894"
         id="stop134" /><stop
         style="stop-opacity:1;stop-color:#905156"
         offset="0.45"
         id="stop136" /><stop
         style="stop-opacity:1;stop-color:#230000"
         offset="0.74478525"
         id="stop138" /><stop
         style="stop-opacity:1;stop-color:#230000"
         offset="0.85"
         id="stop140" /><stop
         style="stop-opacity:1;stop-color:#230000"
         offset="0.87427137"
         id="stop142" /><stop
         style="stop-opacity:1;stop-color:#d55936"
         offset="0.9"
         id="stop144" /><stop
         style="stop-opacity:1;stop-color:#230000"
         offset="0.94150376"
         id="stop146" /><stop
         style="stop-opacity:1;stop-color:#230000"
         offset="1"
         id="stop148" /></radialGradient><clipPath
       clipPathUnits="userSpaceOnUse"
       id="clipPath172"><path
         d="M 240.688,333.327 H 399.634 V 174.383 H 240.688 Z"
         id="path170"
         inkscape:connector-curvature="0" /></clipPath><radialGradient
       fx="0"
       fy="0"
       cx="0"
       cy="0"
       r="1"
       gradientUnits="userSpaceOnUse"
       gradientTransform="matrix(79.472137,0,0,-79.472137,320.16211,253.854)"
       spreadMethod="pad"
       id="radialGradient186"><stop
         style="stop-opacity:1;stop-color:#ffffff"
         offset="0"
         id="stop178" /><stop
         style="stop-opacity:1;stop-color:#ffffff"
         offset="0.15"
         id="stop180" /><stop
         style="stop-opacity:1;stop-color:#000000"
         offset="0.6782653"
         id="stop182" /><stop
         style="stop-opacity:1;stop-color:#000000"
         offset="1"
         id="stop184" /></radialGradient><clipPath
       clipPathUnits="userSpaceOnUse"
       id="clipPath208"><path
         d="M -45.1572,619.173 H 685.479 V -111.463 H -45.1572 Z"
         id="path206"
         inkscape:connector-curvature="0" /></clipPath><linearGradient
       x1="0"
       y1="0"
       x2="1"
       y2="0"
       gradientUnits="userSpaceOnUse"
       gradientTransform="matrix(5.7e-6,-131.26302,131.26302,5.7e-6,470.21777,251.76025)"
       spreadMethod="pad"
       id="linearGradient236"><stop
         style="stop-opacity:1;stop-color:#ffffff"
         offset="0"
         id="stop230" /><stop
         style="stop-opacity:1;stop-color:#ffffff"
         offset="0.41945859"
         id="stop232" /><stop
         style="stop-opacity:1;stop-color:#9ce2f2"
         offset="1"
         id="stop234" /></linearGradient><linearGradient
       x1="0"
       y1="0"
       x2="1"
       y2="0"
       gradientUnits="userSpaceOnUse"
       gradientTransform="matrix(-6.7e-6,-152.40097,-152.40097,6.7e-6,188.80713,279.68896)"
       spreadMethod="pad"
       id="linearGradient258"><stop
         style="stop-opacity:1;stop-color:#ffffff"
         offset="0"
         id="stop252" /><stop
         style="stop-opacity:1;stop-color:#ffffff"
         offset="0.19042762"
         id="stop254" /><stop
         style="stop-opacity:1;stop-color:#9ce2f2"
         offset="1"
         id="stop256" /></linearGradient><radialGradient
       fx="0"
       fy="0"
       cx="0"
       cy="0"
       r="1"
       gradientUnits="userSpaceOnUse"
       gradientTransform="matrix(20.82428,-149.4883,-288.30911,-40.16254,293.05664,212.04492)"
       spreadMethod="pad"
       id="radialGradient280"><stop
         style="stop-opacity:1;stop-color:#ffffff"
         offset="0"
         id="stop274" /><stop
         style="stop-opacity:1;stop-color:#bfedf4"
         offset="0.856876"
         id="stop276" /><stop
         style="stop-opacity:1;stop-color:#bfedf4"
         offset="1"
         id="stop278" /></radialGradient><linearGradient
       x1="0"
       y1="0"
       x2="1"
       y2="0"
       gradientUnits="userSpaceOnUse"
       gradientTransform="matrix(-154.79274,-321.68762,321.68762,-154.79274,215.2168,258.07031)"
       spreadMethod="pad"
       id="linearGradient302"><stop
         style="stop-opacity:1;stop-color:#ffffff"
         offset="0"
         id="stop296" /><stop
         style="stop-opacity:1;stop-color:#ffffff"
         offset="0.04358388"
         id="stop298" /><stop
         style="stop-opacity:1;stop-color:#99d6f4"
         offset="1"
         id="stop300" /></linearGradient><linearGradient
       x1="0"
       y1="0"
       x2="1"
       y2="0"
       gradientUnits="userSpaceOnUse"
       gradientTransform="matrix(8.7e-6,-198.70131,198.70131,8.7e-6,333.49707,202.61914)"
       spreadMethod="pad"
       id="linearGradient326"><stop
         style="stop-opacity:1;stop-color:#ffffff"
         offset="0"
         id="stop318" /><stop
         style="stop-opacity:1;stop-color:#ffffff"
         offset="0.15934092"
         id="stop320" /><stop
         style="stop-opacity:1;stop-color:#bfedf4"
         offset="0.920245"
         id="stop322" /><stop
         style="stop-opacity:1;stop-color:#bfedf4"
         offset="1"
         id="stop324" /></linearGradient><clipPath
       clipPathUnits="userSpaceOnUse"
       id="clipPath336"><path
         d="M 0,0.279 H 499.72 V 178.85 H 0 Z"
         id="path334"
         inkscape:connector-curvature="0" /></clipPath><linearGradient
       x1="0"
       y1="0"
       x2="1"
       y2="0"
       gradientUnits="userSpaceOnUse"
       gradientTransform="matrix(-1.21e-5,-276.46915,-276.46915,1.21e-5,249.85986,279.07812)"
       spreadMethod="pad"
       id="linearGradient354"><stop
         style="stop-opacity:0;stop-color:#ffffff"
         offset="0"
         id="stop346" /><stop
         style="stop-opacity:0;stop-color:#ffffff"
         offset="0.263804"
         id="stop348" /><stop
         style="stop-opacity:0;stop-color:#ffffff"
         offset="0.69203907"
         id="stop350" /><stop
         style="stop-opacity:1;stop-color:#ffffff"
         offset="1"
         id="stop352" /></linearGradient><mask
       maskUnits="userSpaceOnUse"
       x="0"
       y="0"
       width="1"
       height="1"
       id="mask356"><g
         id="g366"><g
           id="g364"><g
             id="g362"><g
               id="g360"><path
                 d="M -32768,32767 H 32767 V -32768 H -32768 Z"
                 style="fill:url(#linearGradient354);stroke:none"
                 id="path358"
                 inkscape:connector-curvature="0" /></g></g></g></g></mask><linearGradient
       x1="0"
       y1="0"
       x2="1"
       y2="0"
       gradientUnits="userSpaceOnUse"
       gradientTransform="matrix(-1.21e-5,-276.46915,-276.46915,1.21e-5,249.85986,279.07812)"
       spreadMethod="pad"
       id="linearGradient380"><stop
         style="stop-opacity:1;stop-color:#ffffff"
         offset="0"
         id="stop372" /><stop
         style="stop-opacity:1;stop-color:#ffffff"
         offset="0.263804"
         id="stop374" /><stop
         style="stop-opacity:1;stop-color:#ffffff"
         offset="0.69203907"
         id="stop376" /><stop
         style="stop-opacity:1;stop-color:#ffffff"
         offset="1"
         id="stop378" /></linearGradient><clipPath
       clipPathUnits="userSpaceOnUse"
       id="clipPath390"><path
         d="M 0,500 H 500 V 0 H 0 Z"
         id="path388"
         inkscape:connector-curvature="0" /></clipPath><clipPath
       clipPathUnits="userSpaceOnUse"
       id="clipPath398"><path
         d="m 281.552,426.67 h 20.474 v -19.462 h -20.474 z"
         id="path396"
         inkscape:connector-curvature="0" /></clipPath><clipPath
       clipPathUnits="userSpaceOnUse"
       id="clipPath414"><path
         d="M 239.089,404.387 H 266.01 V 373.58 h -26.921 z"
         id="path412"
         inkscape:connector-curvature="0" /></clipPath><clipPath
       clipPathUnits="userSpaceOnUse"
       id="clipPath430"><path
         d="m 288.34,380.792 h 30.616 V 354.184 H 288.34 Z"
         id="path428"
         inkscape:connector-curvature="0" /></clipPath><clipPath
       clipPathUnits="userSpaceOnUse"
       id="clipPath446"><path
         d="m 409.063,282.249 h 28.456 v -24.458 h -28.456 z"
         id="path444"
         inkscape:connector-curvature="0" /></clipPath><clipPath
       clipPathUnits="userSpaceOnUse"
       id="clipPath462"><path
         d="m 126.149,367.056 h 38.483 v -32.968 h -38.483 z"
         id="path460"
         inkscape:connector-curvature="0" /></clipPath><clipPath
       clipPathUnits="userSpaceOnUse"
       id="clipPath478"><path
         d="m 348.855,324.469 h 15.649 v -17.81 h -15.649 z"
         id="path476"
         inkscape:connector-curvature="0" /></clipPath><clipPath
       clipPathUnits="userSpaceOnUse"
       id="clipPath502"><path
         d="m 201.974,428.492 h 34.124 v -21.37 h -34.124 z"
         id="path500"
         inkscape:connector-curvature="0" /></clipPath><clipPath
       clipPathUnits="userSpaceOnUse"
       id="clipPath518"><path
         d="m 392.809,313.812 h 18.578 v -10.335 h -18.578 z"
         id="path516"
         inkscape:connector-curvature="0" /></clipPath><clipPath
       clipPathUnits="userSpaceOnUse"
       id="clipPath534"><path
         d="m 169.091,399.362 h 24.7 v -21.606 h -24.7 z"
         id="path532"
         inkscape:connector-curvature="0" /></clipPath><clipPath
       clipPathUnits="userSpaceOnUse"
       id="clipPath550"><path
         d="m 448.291,311.734 h 28.991 v -22.233 h -28.991 z"
         id="path548"
         inkscape:connector-curvature="0" /></clipPath><clipPath
       clipPathUnits="userSpaceOnUse"
       id="clipPath570"><path
         d="m 330.775,384.514 h 23.078 v -17.477 h -23.078 z"
         id="path568"
         inkscape:connector-curvature="0" /></clipPath><clipPath
       clipPathUnits="userSpaceOnUse"
       id="clipPath586"><path
         d="M 388.122,377.752 H 413.74 V 357.399 H 388.122 Z"
         id="path584"
         inkscape:connector-curvature="0" /></clipPath><clipPath
       clipPathUnits="userSpaceOnUse"
       id="clipPath622"><path
         d="M 0,500 H 500 V 0 H 0 Z"
         id="path620"
         inkscape:connector-curvature="0" /></clipPath><linearGradient
       inkscape:collect="always"
       xlink:href="#linearGradient46"
       id="linearGradient1561"
       x1="277.14993"
       y1="5.9479456"
       x2="278.00107"
       y2="497.32727"
       gradientUnits="userSpaceOnUse" /></defs><sodipodi:namedview
     pagecolor="#ffffff"
     bordercolor="#666666"
     borderopacity="1"
     objecttolerance="10"
     gridtolerance="10"
     guidetolerance="10"
     inkscape:pageopacity="0"
     inkscape:pageshadow="2"
     inkscape:window-width="1360"
     inkscape:window-height="737"
     id="namedview4"
     showgrid="false"
     inkscape:zoom="0.50063159"
     inkscape:cx="301.99291"
     inkscape:cy="303.79309"
     inkscape:window-x="0"
     inkscape:window-y="0"
     inkscape:window-maximized="1"
     inkscape:current-layer="g10" /><g
     id="g10"
     inkscape:groupmode="layer"
     inkscape:label="227591-P28KJZ-400"
     transform="matrix(1.3333333,0,0,-1.3333333,0,666.66667)"><g
       id="g12"><g
         id="g14"
         clip-path="url(#clipPath18)"><g
           id="g20"><g
             id="g22"
             clip-path="url(#clipPath26)"><g
               id="g28"><g
                 id="g30"
                 clip-path="url(#clipPath34)"><g
                   id="g36"><g
                     id="g38"><path
                       d="m 1044.533,70.117 c 10.346,21.489 -0.87,48.344 -25.046,59.982 -18.896,9.091 -40.111,6.199 -53.42,-5.755 -2.835,5.147 -7.219,9.509 -12.918,12.252 -7.166,3.447 -15.025,3.702 -22.01,1.359 -2.178,7.851 -7.576,14.762 -15.493,18.573 -9.313,4.483 -19.808,3.576 -28.009,-1.453 -4.68,10.337 -13.293,19.449 -24.911,25.039 -9.088,4.375 -18.713,5.976 -27.738,5.129 -1.792,13.107 -10.732,25.632 -24.645,32.329 -19.587,9.428 -42.069,3.952 -52.179,-12.061 -2.442,2.659 -5.4,4.926 -8.851,6.586 -3.562,1.715 -7.3,2.631 -11.012,2.841 -2.399,7.304 -7.631,13.666 -15.103,17.259 -14.572,7.014 -32.068,0.89 -39.081,-13.682 -0.829,-1.722 -1.457,-3.486 -1.929,-5.266 -6.743,1.741 -13.558,1.871 -19.877,0.563 -3.206,11.085 -11.505,21.206 -23.511,26.982 -20.905,10.062 -45.105,3.156 -54.048,-15.428 0,0 -157.615,22.988 -100.044,-261.14 l 488.039,-10.214 c 0,0 82.319,14.926 71.786,116.105"
                       style="fill:url(#linearGradient46);stroke:none"
                       id="path48"
                       inkscape:connector-curvature="0" /></g></g></g></g></g></g></g></g><g
       id="g1682"><g
         id="g50"><g
           clip-path="url(#clipPath56)"
           id="g52"><g
             id="g58"><g
               id="g60"><path
                 inkscape:connector-curvature="0"
                 id="path74"
                 style="fill:url(#linearGradient1561);fill-opacity:1;stroke:none"
                 d="M 0,0.279 H 499.721 V 500 H 0 Z" /></g></g></g></g><g
         id="g218"><g
           id="g220"><g
             id="g226"><g
               id="g228"><path
                 inkscape:connector-curvature="0"
                 id="path238"
                 style="fill:url(#linearGradient236);stroke:none"
                 d="m 440.36,200.425 c -2.189,0.873 -4.571,1.368 -7.073,1.368 v 0 c -2.58,0 -5.039,-0.519 -7.283,-1.445 v 0 c -3.482,3.617 -8.362,5.879 -13.776,5.879 v 0 c -10.561,0 -19.121,-8.56 -19.121,-19.122 v 0 c 0,-1.247 0.128,-2.464 0.355,-3.645 v 0 c -4.46,-0.885 -8.507,-2.737 -11.856,-5.297 v 0 c -5.026,5.614 -12.775,9.22 -21.476,9.22 v 0 c -15.148,0 -27.433,-10.917 -27.433,-24.386 v 0 c 0,0 -46.214,-1.02 -52.865,-49.79 v 0 h 219.889 v 100.639 c -3.022,-0.829 -5.851,-2.048 -8.413,-3.593 v 0 c -4.767,7.208 -13.575,12.047 -23.659,12.047 v 0 c -14.196,0 -25.873,-9.588 -27.289,-21.875" /></g></g></g></g><g
         id="g240"><g
           id="g242"><g
             id="g248"><g
               id="g250"><path
                 inkscape:connector-curvature="0"
                 id="path260"
                 style="fill:url(#linearGradient258);stroke:none"
                 d="M 0,249.167 V 118.825 h 409.851 c -7.722,56.626 -61.377,57.808 -61.377,57.808 v 0 c 0,15.638 -14.264,28.312 -31.852,28.312 v 0 c -10.101,0 -19.098,-4.185 -24.934,-10.703 v 0 c -3.887,2.972 -8.589,5.121 -13.767,6.151 v 0 c 0.265,1.37 0.413,2.783 0.413,4.23 v 0 c 0,12.263 -9.939,22.201 -22.199,22.201 v 0 c -6.286,0 -11.952,-2.626 -15.992,-6.826 v 0 c -2.607,1.077 -5.462,1.677 -8.459,1.677 v 0 c -2.904,0 -5.67,-0.575 -8.211,-1.587 v 0 c -1.643,14.267 -15.201,25.399 -31.684,25.399 v 0 c -11.706,0 -21.933,-5.622 -27.468,-13.985 v 0 c -5.887,3.546 -12.987,5.617 -20.634,5.617 v 0 c -9.776,0 -18.656,-3.394 -25.252,-8.917 v 0 c -3.951,6.133 -10.822,10.204 -18.659,10.204 v 0 c -6.663,0 -12.622,-2.948 -16.692,-7.595 v 0 c -4,3.899 -9.456,6.308 -15.483,6.308 v 0 c -4.796,0 -9.226,-1.537 -12.856,-4.123 v 0 c -5.16,12.543 -18.704,21.495 -34.603,21.495 v 0 c -7.434,0 -14.354,-1.957 -20.142,-5.324" /></g></g></g></g><g
         id="g262"><g
           id="g264"><g
             id="g270"><g
               id="g272"><path
                 inkscape:connector-curvature="0"
                 id="path282"
                 style="fill:url(#radialGradient280);stroke:none"
                 d="m 285.44,239.349 c -29.207,-4.07 -49.585,-31.044 -45.515,-60.256 v 0 c 10e-4,-0.018 0.003,-0.036 0.007,-0.056 v 0 c -8.106,-1.473 -14.752,-6.449 -18.585,-13.153 v 0 c -4.864,1.561 -10.131,2.115 -15.529,1.362 v 0 C 186.602,164.57 173.193,146.822 175.87,127.605 v 0 c 1.93,-13.866 11.73,-24.67 24.249,-28.627 v 0 c 6.043,-14.912 21.59,-24.423 38.25,-22.102 v 0 c 8.29,1.158 15.501,5.073 20.894,10.664 v 0 c 9.945,-13.763 26.969,-21.707 44.956,-19.203 v 0 c 13.595,1.895 25.027,9.39 32.309,19.823 v 0 c 10.174,-8.9 25.87,-13.49 42.62,-11.156 v 0 c 22.653,3.155 39.995,17.96 43.144,35.183 v 0 c 3.624,-1.062 7.578,-1.405 11.65,-0.838 v 0 c 14.065,1.961 24.036,13.828 22.268,26.51 v 0 c -1.768,12.685 -14.6,21.374 -28.666,19.414 v 0 c -0.079,-0.01 -0.156,-0.028 -0.237,-0.04 v 0 c -2.926,13.71 -15.971,23.041 -30.075,21.076 v 0 c -2.907,-0.406 -5.629,-1.271 -8.13,-2.495 v 0 c -6.149,20.335 -25.837,33.987 -47.415,32.142 v 0 c -8.402,19.128 -27.501,31.909 -48.818,31.909 v 0 c -2.451,0.001 -4.931,-0.168 -7.429,-0.516" /></g></g></g></g><g
         id="g284"><g
           id="g286"><g
             id="g292"><g
               id="g294"><path
                 inkscape:connector-curvature="0"
                 id="path304"
                 style="fill:url(#linearGradient302);stroke:none"
                 d="M 0,220.586 V 0.279 h 345.979 c 15.073,13.995 28.316,37.818 24.153,77.804 v 0 c 8.621,17.907 -0.726,40.286 -20.873,49.984 v 0 c -15.746,7.576 -33.425,5.166 -44.515,-4.796 v 0 c -2.363,4.291 -6.018,7.925 -10.765,10.211 v 0 c -5.972,2.872 -12.522,3.084 -18.343,1.132 v 0 c -1.815,6.542 -6.313,12.302 -12.911,15.478 v 0 c -7.76,3.735 -16.507,2.979 -23.34,-1.211 v 0 c -3.901,8.614 -11.078,16.208 -20.76,20.866 v 0 c -7.573,3.645 -15.593,4.98 -23.114,4.274 v 0 c -1.493,10.923 -8.944,21.36 -20.538,26.941 v 0 c -16.323,7.856 -35.057,3.294 -43.483,-10.051 v 0 c -2.034,2.215 -4.499,4.105 -7.375,5.489 v 0 c -2.969,1.428 -6.084,2.192 -9.178,2.368 v 0 c -1.998,6.086 -6.358,11.387 -12.584,14.382 v 0 C 90.21,218.994 75.63,213.89 69.785,201.747 v 0 c -0.691,-1.435 -1.215,-2.905 -1.606,-4.388 v 0 c -5.621,1.452 -11.3,1.56 -16.567,0.469 v 0 c -2.671,9.239 -9.587,17.672 -19.592,22.486 v 0 c -5.428,2.612 -11.125,3.852 -16.618,3.853 v 0 c -5.491,0 -10.78,-1.238 -15.402,-3.581" /></g></g></g></g><g
         id="g306"><g
           id="g308"><g
             id="g314"><g
               id="g316"><path
                 inkscape:connector-curvature="0"
                 id="path328"
                 style="fill:url(#linearGradient326);stroke:none"
                 d="m 288.301,124.907 c -3.315,1.324 -6.921,2.07 -10.706,2.07 v 0 c -3.907,0 -7.628,-0.784 -11.029,-2.187 v 0 c -5.266,5.477 -12.652,8.9 -20.849,8.9 v 0 c -15.986,0 -28.945,-12.959 -28.945,-28.945 v 0 c 0,-1.887 0.195,-3.728 0.539,-5.514 v 0 c -6.752,-1.345 -12.879,-4.149 -17.948,-8.023 v 0 c -7.607,8.503 -19.337,13.958 -32.507,13.958 v 0 c -22.935,0 -41.527,-16.527 -41.527,-36.913 v 0 c 0,0 -65.205,-1.439 -78.77,-67.974 v 0 h 453.162 v 145.645 c -2.597,0.772 -5.347,1.188 -8.198,1.188 v 0 c -7.856,0 -14.97,-3.142 -20.186,-8.222 v 0 c -5.308,6.058 -13.077,9.899 -21.761,9.899 v 0 c -10.217,0 -19.178,-5.307 -24.328,-13.303 v 0 c -8.599,7.204 -20.177,11.626 -32.924,11.626 v 0 c -9.969,0 -19.227,-2.702 -26.903,-7.324 v 0 c -7.216,10.906 -20.55,18.23 -35.811,18.23 v 0 c -21.49,0 -39.166,-14.511 -41.309,-33.111" /></g></g></g></g><g
         id="g330"><g
           clip-path="url(#clipPath336)"
           id="g332"><g
             id="g338"><g
               id="g340" /><g
               mask="url(#mask356)"
               id="g368"><g
                 id="g370"><path
                   inkscape:connector-curvature="0"
                   id="path382"
                   style="fill:url(#linearGradient380);stroke:none"
                   d="M 0,0.279 H 499.72 V 178.85 H 0 Z" /></g></g></g></g></g><g
         transform="translate(-1.6171,36.7219)"
         id="g384"><g
           clip-path="url(#clipPath390)"
           id="g386"><g
             id="g392"><g
               id="g394" /><g
               id="g406"><g
                 style="opacity:0.5"
                 id="g404"
                 clip-path="url(#clipPath398)"><g
                   id="g402"
                   transform="translate(297.9248,411.6489)"><path
                     inkscape:connector-curvature="0"
                     id="path400"
                     style="fill:#ffffff;fill-opacity:1;fill-rule:nonzero;stroke:none"
                     d="M 0,0 C 0,0 0.58,1.448 1.763,1.396 3.022,1.343 2.71,-0.429 2.71,-0.429 c 0,0 0.797,-0.125 1.392,-0.364 0,0 -1.7,-0.1 -1.998,-0.326 -0.392,-0.298 -1.438,-2.366 -4.432,-3.172 -1.999,-0.536 -8.814,0.423 -10.597,1.923 0,0 -1.25,0.48 -2.705,-0.266 0,0 0.753,1.458 -0.743,3.219 0,0 0.937,0.353 3.486,-1.495 1.302,-0.944 3.053,0.107 3.227,0.686 0.155,0.523 -1.319,3.022 -2.169,4.066 -0.85,1.044 -5.091,3.973 1.41,11.179 0,0 0.761,-7.736 6.564,-9.683 0,0 0.907,2.793 1.98,3.67 1.07,0.876 4.226,2.712 5.458,5.777 0,0 1.339,-4.367 -0.888,-8.373 -2.53,-4.549 -5.397,-6.129 -4.663,-6.7 0,0 1.099,-0.589 1.968,0.288" /></g></g></g></g><g
             id="g408"><g
               id="g410" /><g
               id="g422"><g
                 id="g420"
                 clip-path="url(#clipPath414)"><g
                   id="g418"
                   transform="translate(260.708,380.6328)"><path
                     inkscape:connector-curvature="0"
                     id="path416"
                     style="fill:#0065a5;fill-opacity:1;fill-rule:nonzero;stroke:none"
                     d="m 0,0 c 0,0 0.066,1.143 1.498,1.237 1.527,0.101 1.955,-1.519 1.955,-1.519 0,0 1.013,-0.078 1.849,-0.364 0,0 -1.969,-0.407 -2.202,-0.805 -0.309,-0.526 -0.97,-2.921 -4.104,-4.623 -2.088,-1.135 -10.187,-1.63 -13.106,0.466 0,0 -1.746,0.573 -3.076,-0.811 0,0 0.117,2.401 -2.606,4.947 0,0 0.932,0.693 4.947,-1.839 2.052,-1.292 3.574,0.613 3.47,1.549 -0.092,0.844 -3.181,4.556 -4.748,6.072 -1.568,1.517 -8.175,5.502 -4.289,17.774 0,0 5.036,-12.046 12.975,-14.259 0,0 -0.41,4.523 0.399,6.057 0.807,1.534 3.58,4.875 3.408,9.872 0,0 3.924,-6.666 3.415,-13.286 C -0.796,2.951 -3.366,0.05 -2.187,-0.741 c 0,0 1.621,-0.765 2.187,0.741" /></g></g></g></g><g
             id="g424"><g
               id="g426" /><g
               id="g438"><g
                 id="g436"
                 clip-path="url(#clipPath430)"><g
                   id="g434"
                   transform="translate(309.4805,365.4727)"><path
                     inkscape:connector-curvature="0"
                     id="path432"
                     style="fill:#0065a5;fill-opacity:1;fill-rule:nonzero;stroke:none"
                     d="m 0,0 c 0,0 -0.584,-3.413 0.467,-3.654 1.051,-0.242 2.838,0.196 3.425,1.083 0.587,0.887 1.197,0.963 1.956,0.986 0.757,0.022 1.776,-1.077 1.935,-2.245 0,0 0.753,-0.078 1.693,-0.619 0,0 -2.12,-0.021 -2.948,-0.494 -0.825,-0.474 -4.495,-5.383 -9.062,-6.018 -4.569,-0.635 -7.339,-0.431 -9.441,1.366 -2.103,1.797 -2.261,2.963 -3.938,2.673 -1.677,-0.288 -4.1,-0.3 -5.044,0.09 -0.945,0.391 1.988,-0.239 3.405,0.63 2.636,1.616 9.011,1.988 11.126,1.808 0,0 -3.194,6.323 -2.364,9.573 0.83,3.25 0.558,8.057 -2.444,10.14 0,0 6.701,-4.344 8.827,-5.534 C -0.281,8.592 2.469,6.52 1.406,3.784 0.344,1.046 0,0 0,0" /></g></g></g></g><g
             id="g440"><g
               id="g442" /><g
               id="g454"><g
                 id="g452"
                 clip-path="url(#clipPath446)"><g
                   id="g450"
                   transform="translate(419.4434,271.0986)"><path
                     inkscape:connector-curvature="0"
                     id="path448"
                     style="fill:#0065a5;fill-opacity:1;fill-rule:nonzero;stroke:none"
                     d="m 0,0 c 0,0 -0.486,-3.428 -1.562,-3.337 -1.071,0.092 -2.64,1.054 -2.928,2.078 -0.289,1.023 -0.847,1.282 -1.562,1.537 -0.715,0.253 -2.02,-0.481 -2.529,-1.547 0,0 -0.739,0.157 -1.799,-0.069 0,0 2.011,-0.668 2.653,-1.374 0.642,-0.703 2.634,-6.499 6.79,-8.5 4.156,-2.003 6.855,-2.655 9.405,-1.585 2.553,1.069 3.06,2.13 4.566,1.341 1.509,-0.788 3.814,-1.54 4.832,-1.455 1.02,0.082 -1.968,0.378 -3.051,1.638 -2.016,2.347 -7.97,4.649 -10.041,5.124 0,0 4.976,5.045 5.179,8.391 0.204,3.35 1.932,7.843 5.427,8.908 0,0 -7.709,-2.087 -10.098,-2.57 C 2.896,8.095 -0.356,6.961 -0.181,4.031 -0.007,1.1 0,0 0,0" /></g></g></g></g><g
             id="g456"><g
               id="g458" /><g
               id="g470"><g
                 id="g468"
                 clip-path="url(#clipPath462)"><g
                   id="g466"
                   transform="translate(150.332,357.1924)"><path
                     inkscape:connector-curvature="0"
                     id="path464"
                     style="fill:#0065a5;fill-opacity:1;fill-rule:nonzero;stroke:none"
                     d="m 0,0 c 0,0 1.77,-4.417 3.176,-3.943 1.406,0.472 3.181,2.269 3.233,3.731 0.05,1.461 0.708,1.991 1.581,2.562 0.872,0.571 2.857,0.018 3.881,-1.237 0,0 0.941,0.451 2.429,0.493 0,0 -2.471,-1.55 -3.097,-2.698 -0.628,-1.151 -1.394,-9.543 -6.288,-13.574 -4.894,-4.029 -8.286,-5.781 -12.041,-5.189 -3.756,0.591 -4.781,1.844 -6.539,0.297 -1.755,-1.546 -4.588,-3.301 -5.975,-3.523 -1.386,-0.224 2.506,1.151 3.539,3.188 1.925,3.789 9.127,8.812 11.732,10.122 0,0 -8.289,5.108 -9.656,9.514 -1.366,4.404 -5.143,9.84 -10.158,10.12 0,0 10.976,-0.265 14.324,-0.131 C -6.51,9.865 -1.8,9.415 -1.077,5.444 -0.352,1.474 0,0 0,0" /></g></g></g></g><g
             id="g472"><g
               id="g474" /><g
               id="g486"><g
                 style="opacity:0.5"
                 id="g484"
                 clip-path="url(#clipPath478)"><g
                   id="g482"
                   transform="translate(352.6162,312.9028)"><path
                     inkscape:connector-curvature="0"
                     id="path480"
                     style="fill:#ffffff;fill-opacity:1;fill-rule:nonzero;stroke:none"
                     d="m 0,0 c 0,0 1.829,-1.142 1.503,-1.733 -0.321,-0.586 -1.263,-1.234 -1.919,-1.14 -0.655,0.094 -0.945,-0.155 -1.268,-0.499 -0.325,-0.346 -0.236,-1.271 0.24,-1.83 0,0 -0.275,-0.382 -0.411,-1.042 0,0 0.885,0.975 1.449,1.163 0.562,0.188 4.362,-0.14 6.55,1.718 2.189,1.861 3.239,3.23 3.276,4.953 0.035,1.722 -0.44,2.277 0.39,2.936 0.828,0.661 1.838,1.782 2.046,2.384 C 12.07,7.51 11.145,5.884 10.155,5.587 8.312,5.033 5.496,2.221 4.705,1.167 c 0,0 -1.614,4.104 -3.468,5.063 -1.853,0.961 -3.973,3.079 -3.7,5.336 0,0 -0.757,-4.914 -1.084,-6.394 C -3.873,3.69 -4.052,1.557 -2.34,0.916 -0.626,0.275 0,0 0,0" /></g></g></g></g><g
             transform="translate(167.9302,268.2964)"
             id="g488"><path
               inkscape:connector-curvature="0"
               id="path490"
               style="fill:#0079c2;fill-opacity:1;fill-rule:nonzero;stroke:none"
               d="m 0,0 c 0,0 1.515,-6.31 3.504,-5.949 1.99,0.358 4.742,2.432 5.101,4.392 0.359,1.966 1.35,2.55 2.641,3.146 1.289,0.598 3.858,-0.543 4.991,-2.438 0,0 1.359,0.421 3.376,0.185 0,0 -3.641,-1.605 -4.712,-3.031 C 13.827,-5.12 11.13,-16.29 3.728,-20.759 c -7.403,-4.467 -12.324,-6.158 -17.274,-4.617 -4.951,1.543 -6.086,3.435 -8.762,1.697 -2.674,-1.738 -6.844,-3.545 -8.758,-3.572 -1.915,-0.026 3.608,1.06 5.405,3.599 3.348,4.734 14.058,10.085 17.834,11.333 0,0 -10.174,8.538 -11.146,14.75 -0.969,6.213 -4.989,14.296 -11.696,15.668 0,0 14.752,-2.535 19.296,-3.016 4.544,-0.483 10.812,-2.024 11,-7.523 C -0.183,2.058 0,0 0,0" /></g><g
             transform="translate(214.0869,352.9023)"
             id="g492"><path
               inkscape:connector-curvature="0"
               id="path494"
               style="fill:#0065a5;fill-opacity:1;fill-rule:nonzero;stroke:none"
               d="M 0,0 C 0,0 -0.155,2.118 -2.643,2.34 -5.13,2.562 -4.84,-0.33 -7.44,0.065 c -2.601,0.395 -9.481,-1.147 -15.045,-5.648 -5.563,-4.5 -9.473,-6.812 -14.164,-6.427 -4.691,0.384 -4.487,-5.769 -4.487,-5.769 0,0 8.573,1.783 11.132,3.334 2.563,1.552 7.842,3.105 9.076,-3.116 1.233,-6.221 -4.893,-8.545 -3.263,-13.029 0,0 15.004,6.458 15.149,14.076 0.155,8.025 0.29,7.462 0.29,7.462 0,0 4.216,0.906 7.185,6.547 0,0 2.386,1.438 3.959,1.108 0,0 -1.137,0.984 -2.392,1.397" /></g><g
             id="g496"><g
               id="g498" /><g
               id="g510"><g
                 id="g508"
                 clip-path="url(#clipPath502)"><g
                   id="g506"
                   transform="translate(234.5283,426.3477)"><path
                     inkscape:connector-curvature="0"
                     id="path504"
                     style="fill:#0065a5;fill-opacity:1;fill-rule:nonzero;stroke:none"
                     d="M 0,0 C 0,0 0.168,1.574 -1.627,2.07 -3.424,2.564 -3.596,0.403 -5.45,1.039 c -1.857,0.636 -7.113,0.421 -11.793,-2.14 -4.683,-2.562 -7.86,-3.738 -11.251,-2.829 -3.391,0.906 -4.061,-3.638 -4.061,-3.638 0,0 6.527,0.168 8.613,0.965 2.087,0.797 6.168,1.233 6.244,-3.496 0.077,-4.73 -4.727,-5.619 -4.13,-9.127 0,0 11.872,2.741 12.993,8.312 1.182,5.869 1.207,5.437 1.207,5.437 0,0 3.213,0.103 6.144,3.846 0,0 1.943,0.738 3.053,0.289 0,0 -0.703,0.871 -1.569,1.342" /></g></g></g></g><g
             id="g512"><g
               id="g514" /><g
               id="g526"><g
                 id="g524"
                 clip-path="url(#clipPath518)"><g
                   id="g522"
                   transform="translate(393.2432,307.9746)"><path
                     inkscape:connector-curvature="0"
                     id="path520"
                     style="fill:#0065a5;fill-opacity:1;fill-rule:nonzero;stroke:none"
                     d="m 0,0 c 0,0 -0.49,0.739 0.272,1.449 0.77,0.71 1.414,-0.322 2.171,0.475 0.759,0.795 3.427,2.043 6.416,1.978 2.992,-0.067 4.875,0.169 6.326,1.494 1.454,1.328 2.959,-0.759 2.959,-0.759 0,0 -3.29,-1.601 -4.533,-1.742 -1.244,-0.144 -3.385,-0.981 -2.204,-3.352 1.183,-2.371 3.802,-1.575 4.408,-3.473 0,0 -6.611,-1.7 -8.605,0.782 -2.103,2.614 -2.003,2.393 -2.003,2.393 0,0 -1.626,-0.778 -4.047,0.328 0,0 -1.159,-0.136 -1.595,-0.646 0,0 0.125,0.615 0.435,1.073" /></g></g></g></g><g
             id="g528"><g
               id="g530" /><g
               id="g542"><g
                 id="g540"
                 clip-path="url(#clipPath534)"><g
                   id="g538"
                   transform="translate(190.8262,380.7285)"><path
                     inkscape:connector-curvature="0"
                     id="path536"
                     style="fill:#0065a5;fill-opacity:1;fill-rule:nonzero;stroke:none"
                     d="m 0,0 c 0,0 0.386,-0.788 0.066,-1.35 0,0 -0.829,1.081 -1.135,1.125 -0.307,0.043 -5.093,-2.497 -7.763,-1.495 -2.67,1.003 -2.527,1.093 -3.559,0.494 -1.03,-0.598 -2.983,-1.746 -2.983,-1.746 0,0 -2.208,0.559 -2.329,2.432 0,0 3.413,0.17 5.351,1.469 1.938,1.296 2.859,1.506 2.859,1.506 0,0 -4.078,1.141 -5.295,1.241 -2.839,0.237 -3.623,0.726 -6.947,5.807 0,0 2.619,-2.294 6.718,-2.576 2.773,-0.188 6.933,-2.708 6.933,-2.708 0,0 4.013,3.331 6.977,8.505 2.963,5.176 2.959,5.93 2.959,5.93 0,0 2.279,-6.623 0.313,-9.809 C 0.2,5.641 -2.669,4.122 -2.435,3.315 -2.198,2.511 -1.876,2.448 -1.068,2.677 -0.409,2.862 0.095,2.856 0.658,1.957 1.249,1.011 0,0 0,0" /></g></g></g></g><g
             id="g544"><g
               id="g546" /><g
               id="g558"><g
                 id="g556"
                 clip-path="url(#clipPath550)"><g
                   id="g554"
                   transform="translate(454.8115,291.0459)"><path
                     inkscape:connector-curvature="0"
                     id="path552"
                     style="fill:#0065a5;fill-opacity:1;fill-rule:nonzero;stroke:none"
                     d="m 0,0 c 0,0 -0.256,-0.983 0.232,-1.545 0,0 0.694,1.412 1.032,1.53 0.338,0.119 6.337,-1.669 9.131,0.071 2.799,1.743 2.618,1.812 3.919,1.369 1.303,-0.445 3.778,-1.301 3.778,-1.301 0,0 2.374,1.135 2.087,3.284 0,0 -3.907,-0.583 -6.397,0.448 -2.488,1.028 -3.58,1.058 -3.58,1.058 0,0 4.361,2.216 5.716,2.608 3.164,0.912 3.939,1.644 6.553,8.155 0,0 -2.447,-3.194 -7.028,-4.443 -3.097,-0.843 -7.239,-4.642 -7.239,-4.642 0,0 -5.301,2.861 -9.833,8.051 -4.534,5.189 -4.7,6.045 -4.7,6.045 0,0 -1.077,-8.021 1.875,-11.183 C -1.505,6.34 2.088,5.272 2.005,4.308 1.922,3.344 1.57,3.197 0.603,3.273 -0.186,3.333 -0.754,3.214 -1.187,2.064 -1.644,0.86 0,0 0,0" /></g></g></g></g><g
             transform="translate(103.6641,313.645)"
             id="g560"><path
               inkscape:connector-curvature="0"
               id="path562"
               style="fill:#0065a5;fill-opacity:1;fill-rule:nonzero;stroke:none"
               d="m 0,0 c 0,0 2.099,-0.302 2.79,-1.7 0,0 -3.289,-0.19 -3.79,-0.746 -0.502,-0.552 -1.921,-13.569 -7.546,-17.548 -5.626,-3.979 -5.615,-3.572 -5.815,-6.445 -0.202,-2.874 -0.558,-8.337 -0.558,-8.337 0,0 -4.117,-3.656 -8.025,-1.356 0,0 4.293,7.056 4.327,12.692 0.036,5.633 0.867,7.758 0.867,7.758 0,0 -7.813,-6.605 -9.666,-8.902 -4.324,-5.356 -6.369,-6.26 -21.041,-6.012 0,0 8.145,2.125 14.268,9.941 4.141,5.288 14.822,10.188 14.822,10.188 0,0 -1.213,12.54 -7.541,25.489 -6.328,12.952 -7.841,13.966 -7.841,13.966 0,0 16.339,-4.428 20.04,-12.683 3.703,-8.253 2.846,-16.052 4.774,-16.674 1.931,-0.619 2.497,-0.06 3.134,1.865 0.523,1.569 1.218,2.568 3.782,2.471 C -0.329,3.868 0,0 0,0" /></g><g
             id="g564"><g
               id="g566" /><g
               id="g578"><g
                 style="opacity:0.5"
                 id="g576"
                 clip-path="url(#clipPath570)"><g
                   id="g574"
                   transform="translate(348.1934,368.2573)"><path
                     inkscape:connector-curvature="0"
                     id="path572"
                     style="fill:#ffffff;fill-opacity:1;fill-rule:nonzero;stroke:none"
                     d="m 0,0 c 0,0 0.18,-0.788 -0.226,-1.221 0,0 -0.512,1.142 -0.776,1.243 -0.266,0.105 -5.077,-1.155 -7.249,0.304 -2.175,1.456 -2.029,1.508 -3.076,1.189 -1.048,-0.316 -3.034,-0.93 -3.034,-0.93 0,0 -1.856,0.965 -1.569,2.664 0,0 3.084,-0.567 5.091,0.183 2.005,0.75 2.87,0.744 2.87,0.744 0,0 -3.401,1.879 -4.468,2.226 -2.486,0.808 -3.082,1.41 -4.981,6.65 0,0 1.856,-2.602 5.459,-3.715 2.438,-0.756 5.622,-3.882 5.622,-3.882 0,0 4.288,2.128 8.026,6.127 3.74,4 3.894,4.675 3.894,4.675 0,0 0.641,-6.399 -1.789,-8.831 C 1.367,4.995 -1.517,4.244 -1.474,3.475 -1.434,2.707 -1.159,2.58 -0.391,2.616 0.236,2.642 0.687,2.531 1,1.609 1.329,0.64 0,0 0,0" /></g></g></g></g><g
             id="g580"><g
               id="g582" /><g
               id="g594"><g
                 style="opacity:0.5"
                 id="g592"
                 clip-path="url(#clipPath586)"><g
                   id="g590"
                   transform="translate(392.4697,358.8862)"><path
                     inkscape:connector-curvature="0"
                     id="path588"
                     style="fill:#ffffff;fill-opacity:1;fill-rule:nonzero;stroke:none"
                     d="m 0,0 c 0,0 -0.314,-0.847 0.07,-1.389 0,0 0.74,1.192 1.048,1.264 0.307,0.077 5.459,-2.036 8.085,-0.742 2.631,1.293 2.478,1.372 3.591,0.862 1.115,-0.506 3.228,-1.482 3.228,-1.482 0,0 2.202,0.794 2.137,2.72 0,0 -3.509,-0.169 -5.621,0.962 -2.112,1.13 -3.075,1.253 -3.075,1.253 0,0 4.055,1.577 5.289,1.804 2.879,0.526 3.63,1.105 6.519,6.638 0,0 -2.449,-2.612 -6.612,-3.31 C 11.841,8.104 7.845,5.107 7.845,5.107 c 0,0 -4.442,3.001 -7.995,7.994 -3.553,4.994 -3.624,5.765 -3.624,5.765 0,0 -1.663,-7.003 0.671,-10.061 C -0.773,5.746 2.315,4.482 2.155,3.636 1.998,2.789 1.674,2.689 0.823,2.844 0.133,2.965 -0.384,2.91 -0.869,1.934 -1.378,0.907 0,0 0,0" /></g></g></g></g><g
             transform="translate(107.0591,189.2891)"
             id="g596"><path
               inkscape:connector-curvature="0"
               id="path598"
               style="fill:#0065a5;fill-opacity:1;fill-rule:nonzero;stroke:none"
               d="m 0,0 c 0,0 -0.647,2.75 2.677,3.979 3.544,1.31 5.69,-2.221 5.69,-2.221 0,0 2.449,0.525 4.626,0.433 0,0 -4.368,-2.339 -4.642,-3.445 -0.361,-1.459 -0.246,-7.59 -6.458,-13.81 -4.142,-4.155 -22.945,-11.008 -31.322,-8.1 0,0 -4.529,0.127 -6.703,-4.078 0,0 -1.411,5.758 -9.631,9.873 0,0 1.712,2.287 12.985,-0.879 5.757,-1.617 8.019,3.955 7.122,6.098 -0.814,1.929 -10.723,8.541 -15.493,11.025 -4.772,2.484 -23.193,7.268 -22.616,39.018 0,0 20.363,-24.946 40.69,-24.61 0,0 -4.146,10.406 -3.308,14.604 0.833,4.191 5.043,14.043 1.13,25.736 0,0 13.956,-13.008 17.397,-29.021 3.905,-18.182 -0.138,-26.848 3.205,-27.887 0,0 4.371,-0.674 4.651,3.285" /></g></g></g></g></g></svg>